<svg width="25" height="25" viewBox="0 0 25 25" fill="none" xmlns="http://www.w3.org/2000/svg">
<path d="M19.58 7.09999C18.86 5.89999 17.54 5.29999 16.1 5.29999H8.90003C7.46003 5.29999 6.14003 5.89999 5.42003 7.09999C2.66003 11.3 2.06003 17.66 3.98003 18.98C5.90003 20.3 10.22 14.54 12.5 14.54C14.78 14.54 18.98 20.3 21.02 18.98C22.94 17.66 22.34 11.3 19.58 7.09999ZM10.1 11.3H8.90003V12.5H7.70003V11.3H6.50003V10.1H7.70003V8.89999H8.90003V10.1H10.1V11.3ZM16.58 11.9C16.58 12.5 16.1 12.98 15.5 12.98C14.9 12.98 14.42 12.5 14.42 11.9C14.42 11.3 14.9 10.82 15.5 10.82C16.1 10.82 16.58 11.3 16.58 11.9ZM18.86 9.49999C18.86 10.1 18.38 10.58 17.78 10.58C17.18 10.58 16.7 10.1 16.7 9.49999C16.7 8.89999 17.18 8.41999 17.78 8.41999C18.38 8.41999 18.86 8.89999 18.86 9.49999Z" fill="black"/>
</svg>
