<svg width="57" height="58" viewBox="0 0 57 58" fill="none" xmlns="http://www.w3.org/2000/svg">
<path d="M28.5 6.73438C24.9569 6.73438 21.5589 8.14188 19.0535 10.6472C16.5481 13.1526 15.1406 16.5506 15.1406 20.0937C15.1406 27.4735 28.5 52.37 28.5 52.37C28.5 52.37 41.8594 27.4752 41.8594 20.0937C41.8594 16.5506 40.4519 13.1526 37.9465 10.6472C35.4411 8.14188 32.0431 6.73438 28.5 6.73438ZM28.5 26.4777C26.8069 26.4777 25.1831 25.8051 23.9858 24.6079C22.7886 23.4107 22.116 21.7869 22.116 20.0937C22.116 18.4006 22.7886 16.7768 23.9858 15.5796C25.1831 14.3823 26.8069 13.7097 28.5 13.7097C30.1931 13.7097 31.8169 14.3823 33.0142 15.5796C34.2114 16.7768 34.884 18.4006 34.884 20.0937C34.884 21.7869 34.2114 23.4107 33.0142 24.6079C31.8169 25.8051 30.1931 26.4777 28.5 26.4777Z" fill="white"/>
</svg>
