<svg width="17" height="17" viewBox="0 0 17 17" fill="none" xmlns="http://www.w3.org/2000/svg">
<path d="M14.5 4.94375C14.3823 5.0047 14.2452 5.01642 14.1188 4.97634C13.9925 4.93626 13.8873 4.84765 13.8262 4.73C13.349 3.78718 12.6266 2.99031 11.735 2.42312C11.6794 2.38808 11.6313 2.34243 11.5934 2.28879C11.5554 2.23514 11.5285 2.17456 11.5139 2.11048C11.4994 2.04641 11.4977 1.98011 11.5088 1.91536C11.5199 1.85061 11.5437 1.78869 11.5787 1.73312C11.6138 1.67756 11.6594 1.62944 11.7131 1.59152C11.7667 1.55359 11.8273 1.5266 11.8914 1.5121C11.9554 1.49759 12.0217 1.49584 12.0865 1.50695C12.1512 1.51807 12.2132 1.54183 12.2687 1.57687C13.3078 2.24221 14.1516 3.1716 14.7137 4.27C14.7747 4.3877 14.7864 4.52478 14.7463 4.65112C14.7062 4.77746 14.6176 4.88271 14.5 4.94375ZM2.73185 5C2.82345 4.99996 2.91328 4.97476 2.99153 4.92715C3.06979 4.87953 3.13346 4.81133 3.1756 4.73C3.65285 3.78718 4.37523 2.99031 5.26685 2.42312C5.37907 2.35234 5.45857 2.23988 5.48787 2.11048C5.51718 1.98108 5.49388 1.84534 5.4231 1.73312C5.35232 1.6209 5.23986 1.5414 5.11046 1.5121C4.98106 1.48279 4.84532 1.50609 4.7331 1.57687C3.69397 2.24221 2.85021 3.1716 2.2881 4.27C2.24862 4.3462 2.22942 4.43128 2.23235 4.51704C2.23527 4.60281 2.26022 4.68638 2.3048 4.75972C2.34938 4.83305 2.41208 4.89367 2.48687 4.93576C2.56166 4.97784 2.64603 4.99996 2.73185 5ZM14.3631 11.4962C14.4517 11.6482 14.4986 11.8207 14.4992 11.9966C14.4998 12.1724 14.4541 12.3453 14.3665 12.4978C14.279 12.6503 14.1528 12.777 14.0007 12.8652C13.8485 12.9534 13.6758 12.9999 13.5 13H10.95C10.8352 13.5651 10.5286 14.0732 10.0821 14.4382C9.63559 14.8031 9.07665 15.0025 8.49997 15.0025C7.92329 15.0025 7.36435 14.8031 6.91784 14.4382C6.47134 14.0732 6.16473 13.5651 6.04997 13H3.49997C3.32423 12.9997 3.15169 12.953 2.99973 12.8647C2.84776 12.7765 2.72173 12.6497 2.63435 12.4973C2.54696 12.3448 2.50129 12.172 2.50195 11.9963C2.50261 11.8205 2.54957 11.6481 2.6381 11.4962C3.20122 10.5244 3.49997 9.1425 3.49997 7.5C3.49997 6.17392 4.02676 4.90215 4.96444 3.96447C5.90212 3.02678 7.17389 2.5 8.49997 2.5C9.82605 2.5 11.0978 3.02678 12.0355 3.96447C12.9732 4.90215 13.5 6.17392 13.5 7.5C13.5 9.14187 13.7987 10.5237 14.3631 11.4962ZM9.91372 13H7.08622C7.18981 13.2921 7.38135 13.545 7.63451 13.7238C7.88767 13.9027 8.19002 13.9987 8.49997 13.9987C8.80993 13.9987 9.11227 13.9027 9.36543 13.7238C9.61859 13.545 9.81013 13.2921 9.91372 13ZM13.5 12C12.835 10.8581 12.5 9.34437 12.5 7.5C12.5 6.43913 12.0785 5.42172 11.3284 4.67157C10.5783 3.92143 9.56084 3.5 8.49997 3.5C7.43911 3.5 6.42169 3.92143 5.67154 4.67157C4.9214 5.42172 4.49997 6.43913 4.49997 7.5C4.49997 9.345 4.16372 10.8587 3.49997 12H13.5Z" fill="white"/>
</svg>
