<svg width="26" height="20" viewBox="0 0 26 20" fill="none" xmlns="http://www.w3.org/2000/svg">
<path d="M17.75 18.7083H22.5079C23.1378 18.7083 23.7419 18.4581 24.1873 18.0127C24.6327 17.5673 24.8829 16.9632 24.8829 16.3333V3.66666C24.8829 3.03677 24.6327 2.43268 24.1873 1.98728C23.7419 1.54188 23.1378 1.29166 22.5079 1.29166H17.75C18.3799 1.29166 18.984 1.54188 19.4294 1.98728C19.8748 2.43268 20.125 3.03677 20.125 3.66666V16.3333C20.125 16.9632 19.8748 17.5673 19.4294 18.0127C18.984 18.4581 18.3799 18.7083 17.75 18.7083Z" stroke="black" stroke-opacity="0.5"/>
<path d="M17.75 1.29166H3.5C2.18832 1.29166 1.125 2.35498 1.125 3.66666V16.3333C1.125 17.645 2.18832 18.7083 3.5 18.7083H17.75C19.0617 18.7083 20.125 17.645 20.125 16.3333V3.66666C20.125 2.35498 19.0617 1.29166 17.75 1.29166Z" stroke="black" stroke-opacity="0.5"/>
<path d="M7.85417 11.5833C8.94723 11.5833 9.83333 10.6972 9.83333 9.60417C9.83333 8.5111 8.94723 7.625 7.85417 7.625C6.7611 7.625 5.875 8.5111 5.875 9.60417C5.875 10.6972 6.7611 11.5833 7.85417 11.5833Z" stroke="black" stroke-opacity="0.5"/>
</svg>
